<?xml version="1.0" standalone="no"?><!DOCTYPE svg PUBLIC "-//W3C//DTD SVG 1.1//EN" "http://www.w3.org/Graphics/SVG/1.1/DTD/svg11.dtd"><svg t="1761981546437" class="icon" viewBox="0 0 1152 1024" version="1.1" xmlns="http://www.w3.org/2000/svg" p-id="7067" xmlns:xlink="http://www.w3.org/1999/xlink" width="225" height="200"><path d="M835.6 631l40-40c7.6-7.6 20.4-2.2 20.4 8.4V928c0 53-43 96-96 96H96c-53 0-96-43-96-96V224c0-53 43-96 96-96h584.6c10.6 0 16 13 8.4 20.4l-40 40c-2.2 2.2-5.4 3.6-8.4 3.6H96c-17.6 0-32 14.4-32 32v704c0 17.6 14.4 32 32 32h704c17.6 0 32-14.4 32-32V639.4c0-3.2 1.2-6.2 3.6-8.4z m291.8-382.4L502.4 873.6l-199.8 22.2c-26.8 3-49.4-19.6-46.4-46.4l22.2-199.8L903.4 24.6c32.8-32.8 86-32.8 118.8 0l105.2 105.2c32.8 32.8 32.8 86 0 118.8z m-187.2 96.8L806.8 212 339.6 679l-16.6 150.2 150.2-16.6 467-467.2z m142-170.4l-105.2-105.2c-7.6-7.6-20.4-8-28.2 0L852 166.6l133.4 133.4 96.8-96.8c7.8-7.6 7.8-20.4 0-28.2z" p-id="7068"></path></svg>