<?xml version="1.0" standalone="no"?><!DOCTYPE svg PUBLIC "-//W3C//DTD SVG 1.1//EN" "http://www.w3.org/Graphics/SVG/1.1/DTD/svg11.dtd"><svg t="1761803821093" class="icon" viewBox="0 0 1024 1024" version="1.1" xmlns="http://www.w3.org/2000/svg" p-id="23569" xmlns:xlink="http://www.w3.org/1999/xlink" width="200" height="200"><path d="M285.86784261 331.26222658l332.5472906-258.08860857s23.93500739-15.53566887 46.88748853-3.91834712c0 0 15.95387171 6.29824421 25.47177829 23.51344498 0 0 7.13633036 13.01469126 1.81893329 28.68976153S494.12978221 454.14852763 494.12978221 454.14852763s-6.29824421 14.48596196-21.20408951 6.71812753l-190.69739577-105.8105017s-15.14937589-8.2229872 3.63954568-23.79392688z m469.18055935 343.78839678l-190.31446376-106.49407037c-14.87729225-7.82325862-21.22928157 6.64254859-21.22928155 6.6425486S349.21978117 891.51539678 343.84527943 907.1703123c-5.37450175 15.65659463 1.71480132 28.69647934 1.71480132 28.69647933 9.45576322 17.2504702 25.38780245 23.60413998 25.38780244 23.60413999 22.91049253 11.69961851 46.90092412-3.74871495 46.90092413-3.74871497l333.47439265-256.89110199c18.84434713-15.50375764 3.72520199-23.78048992 3.72520199-23.7804913zM88.94274148 349.38773423c-13.71673559 7.69729419-20.64480478 23.79392688-20.64480339 23.79392689C58.57176896 388.57624811 72.14742405 407.9614043 72.14742405 407.9614043s264.80673611 304.69561522 277.82310785 320.58062717 26.0327421-0.90862641 26.03274212-0.90862641 100.35202272-159.69491918 107.83937524-173.76099783S475.65493287 533.08652196 475.65493287 533.08652196l-343.0443652-184.74849602c-12.10606485-5.7389595-29.95109058-6.64758729-43.66782619 1.04970829z m855.44935448 334.13780659c13.67810656-7.76783444 20.52387764-23.89805746 20.52387765-23.89805748 9.64890971-15.44329476-4.02415818-34.75958983-4.02415819-34.75958983S694.56174401 321.50414761 681.46475602 305.68631772c-13.0953089-15.81951038-26.02770341 1.03795043-26.0277048 1.03795043s-99.5508865 160.19709922-106.96601828 174.3001278c-7.41681227 14.10302858 8.29184834 20.74557578 8.29184835 20.74557577l343.96810629 183.02361594c12.1329374 5.68017711 29.98132134 6.49642939 43.66110838-1.26804684z" fill="#2c2c2c" p-id="23570"></path></svg>