<?xml version="1.0" standalone="no"?><!DOCTYPE svg PUBLIC "-//W3C//DTD SVG 1.1//EN" "http://www.w3.org/Graphics/SVG/1.1/DTD/svg11.dtd"><svg t="1761871818895" class="icon" viewBox="0 0 1024 1024" version="1.1" xmlns="http://www.w3.org/2000/svg" p-id="6297" xmlns:xlink="http://www.w3.org/1999/xlink" width="200" height="200"><path d="M128.192 128h575.616a64 64 0 0 1 44.032 110.464L512 461.696v354.304L320 960l-0.064-498.304-235.776-223.232a64 64 0 0 1-7.616-84.288l5.12-6.208A64 64 0 0 1 128.256 128z m575.616 64H128.192L384 434.24l-0.064 397.696L448 783.936V434.24L703.872 192zM685.248 640l90.496 90.496L866.304 640l45.248 45.248-90.56 90.496 90.56 90.56-45.248 45.248-90.56-90.56-90.496 90.56-45.248-45.248 90.496-90.56L640 685.248l45.248-45.248z" fill="" fill-opacity=".9" p-id="6298"></path></svg>