<?xml version="1.0" standalone="no"?><!DOCTYPE svg PUBLIC "-//W3C//DTD SVG 1.1//EN" "http://www.w3.org/Graphics/SVG/1.1/DTD/svg11.dtd"><svg t="1762395328934" class="icon" viewBox="0 0 1024 1024" version="1.1" xmlns="http://www.w3.org/2000/svg" p-id="56915" xmlns:xlink="http://www.w3.org/1999/xlink" width="200" height="200"><path d="M992.119953 326.940068l-54.679995-32.819997 16.879999-151.939985c4.28-38.999996-27.219997-76.819992-72.499993-72.539993l-151.939985 16.899999-32.819997-54.679995C685.239983 12.220099 664.559985 0.3201 641.619987 0.0001c-21.179998-0.04-43.939996 11.059999-56.239994 30.399997l-85.819992 134.899987c-16.659998-45.039996-65.799994-48.819995-85.059991-38.399996l-27.619998 14.819998-70.179993-79.439992c-12.339999-15.419998-30.839997-24.619998-51.239995-24.619998-20.059998 0-38.739996 8.939999-50.319995 23.399998L144.000036 141.720086l-27.619997-14.819998c-36.959996-19.979998-100.19999 17.239998-87.439992 74.619992l58.819994 285.379972-47.999995 20.599998c-52.899995 22.679998-52.899995 97.99999 0 120.679989l217.579979 93.239991L9.380049 969.380005c-12.499999 12.499999-12.499999 32.759997 0 45.239996C15.620048 1020.88 23.820048 1024 32.000047 1024s16.379998-3.12 22.619998-9.379999l247.959975-247.959976 93.239991 217.479979c10.379999 24.359998 34.219997 39.839996 60.379994 39.839996 26.239997 0 49.939995-15.599998 60.379995-39.819996l20.499998-47.959995L821.99997 995.000003c47.659995 10.579999 95.639991-34.439997 77.939992-79.999992l-17.679998-34.999997 79.499992-70.179993c33.299997-26.699997 32.139997-76.039993 0.68-101.93999l-80.179992-70.759993 14.819998-27.599998c12.679999-23.459998 2.2-70.379993-38.439996-85.039991l134.999987-85.879992c41.339996-26.339997 40.099996-86.679992-1.52-111.659989zM685.879983 558.560045c-30.499997 19.419998-10.039999 66.939993 25.119998 57.999995l125.559987-29.599997-34.679996 64.599993 120.859988 107.01999-120.859988 106.979989 35.559996 66.239994-338.639967-68.839993-44.119995 96.03999-103.35999-241.079976L662.599985 406.64006c12.499999-12.499999 12.499999-32.759997 0-45.239995-12.499999-12.499999-32.739997-12.499999-45.239995 0L306.32002 672.420034 65.000044 566.320045l95.99999-41.159996L93.740041 187.380082l64.619994 34.719996 109.319989-118.659988 104.81999 118.659988 66.819993-35.899996 0.32 0.94-32.179997 125.879987c-8.899999 35.059997 38.359996 55.659995 57.999995 25.119998L642.199987 64.820094l53.939995 89.879991 194.559981-19.559998-21.379998 192.739981 89.939991 56.759994-273.379973 173.919983z" p-id="56916"></path></svg>