<?xml version="1.0" standalone="no"?><!DOCTYPE svg PUBLIC "-//W3C//DTD SVG 1.1//EN" "http://www.w3.org/Graphics/SVG/1.1/DTD/svg11.dtd"><svg t="1762389560407" class="icon" viewBox="0 0 1024 1024" version="1.1" xmlns="http://www.w3.org/2000/svg" p-id="7727" xmlns:xlink="http://www.w3.org/1999/xlink" width="200" height="200"><path d="M818.96091497 601.47848533c-49.08889125 0-90.0998637-41.01097245-90.09986372-90.0998637s41.01097245-90.0998637 90.09986372-90.09986371 90.0998637 41.01097245 90.0998637 90.09986371c0.62137837 50.331648-39.14683733 90.0998637-90.0998637 90.0998637z m-306.96091497 0c-49.08889125 0-90.0998637-41.01097245-90.0998637-90.0998637s41.01097245-90.0998637 90.0998637-90.09986371 90.0998637 41.01097245 90.0998637 90.09986371c0 50.331648-39.7682157 90.0998637-90.0998637 90.0998637z m-306.96091497 0c-49.08889125 0-90.0998637-41.01097245-90.0998637-90.0998637s41.01097245-90.0998637 90.0998637-90.09986371 90.0998637 41.01097245 90.09986372 90.09986371c0 50.331648-39.7682157 90.0998637-90.09986372 90.0998637z" fill="" p-id="7728"></path></svg>