<?xml version="1.0" standalone="no"?><!DOCTYPE svg PUBLIC "-//W3C//DTD SVG 1.1//EN" "http://www.w3.org/Graphics/SVG/1.1/DTD/svg11.dtd"><svg t="1761616075614" class="icon" viewBox="0 0 1024 1024" version="1.1" xmlns="http://www.w3.org/2000/svg" p-id="2365" xmlns:xlink="http://www.w3.org/1999/xlink" width="200" height="200"><path d="M469.333333 847.004444a127.217778 127.217778 0 0 1-127.232 127.217778h-1.521777A127.232 127.232 0 0 1 213.333333 847.004444v-670.008888A127.217778 127.217778 0 0 1 340.565333 49.777778h1.521778A127.232 127.232 0 0 1 469.333333 176.995556v670.008888z m-56.888889-670.008888A70.328889 70.328889 0 0 0 342.101333 106.666667h-1.521777A70.328889 70.328889 0 0 0 270.222222 176.995556v669.994666a70.328889 70.328889 0 0 0 70.343111 70.328889h1.521778a70.328889 70.328889 0 0 0 70.343111-70.328889V176.995556z" fill="" p-id="2366"></path><path d="M312.888889 291.555556a14.222222 14.222222 0 0 1-14.222222-14.222223v-56.888889a14.222222 14.222222 0 1 1 28.444444 0v56.888889a14.222222 14.222222 0 0 1-14.222222 14.222223zM312.888889 334.222222a14.222222 14.222222 0 0 1-14.222222-14.222222v-5.888a14.222222 14.222222 0 1 1 28.444444 0v5.888a14.222222 14.222222 0 0 1-14.222222 14.222222zM810.666667 847.004444a127.232 127.232 0 0 1-127.232 127.217778h-1.521778a127.232 127.232 0 0 1-127.232-127.217778v-670.008888A127.232 127.232 0 0 1 681.912889 49.777778h1.521778A127.232 127.232 0 0 1 810.666667 176.995556v670.008888z m-56.888889-670.008888A70.343111 70.343111 0 0 0 683.434667 106.666667h-1.521778A70.343111 70.343111 0 0 0 611.555556 176.995556v669.994666a70.343111 70.343111 0 0 0 70.343111 70.328889h1.521777a70.343111 70.343111 0 0 0 70.343112-70.328889V176.995556z" fill="" p-id="2367"></path></svg>