<?xml version="1.0" standalone="no"?><!DOCTYPE svg PUBLIC "-//W3C//DTD SVG 1.1//EN" "http://www.w3.org/Graphics/SVG/1.1/DTD/svg11.dtd"><svg t="1761530591087" class="icon" viewBox="0 0 1024 1024" version="1.1" xmlns="http://www.w3.org/2000/svg" p-id="3794" xmlns:xlink="http://www.w3.org/1999/xlink" width="200" height="200"><path d="M957.44 25.6H66.56C30.72 25.6 0 56.32 0 92.16s30.72 66.56 66.56 66.56h890.88c35.84 0 66.56-30.72 66.56-66.56S993.28 25.6 957.44 25.6zM66.56 578.56h348.16c35.84 0 66.56-30.72 66.56-66.56s-30.72-66.56-66.56-66.56H66.56C30.72 445.44 0 476.16 0 512s30.72 66.56 66.56 66.56zM675.84 865.28H66.56c-35.84 0-66.56 30.72-66.56 66.56 0 35.84 30.72 66.56 66.56 66.56h609.28c35.84 0 66.56-30.72 66.56-66.56 0-35.84-30.72-66.56-66.56-66.56z" p-id="3795" fill="#ffffff"></path></svg>