<?xml version="1.0" standalone="no"?><!DOCTYPE svg PUBLIC "-//W3C//DTD SVG 1.1//EN" "http://www.w3.org/Graphics/SVG/1.1/DTD/svg11.dtd"><svg t="1762391949189" class="icon" viewBox="0 0 1024 1024" version="1.1" xmlns="http://www.w3.org/2000/svg" p-id="7731" xmlns:xlink="http://www.w3.org/1999/xlink" width="200" height="200"><path d="M927.232 607.744v58.88c0 15.872-12.8 28.672-28.672 28.672H341.504L434.688 788.48c11.264 11.264 11.264 29.184 0 40.448l-41.472 41.472c-11.264 11.264-29.184 11.264-40.448 0L107.52 625.152c-10.752-10.752-10.752-27.648 0-38.4 5.12-5.12 11.776-7.68 18.944-7.68h772.096c15.872 0 28.672 12.8 28.672 28.672z m-30.208-161.792H124.928c-15.872 0-28.672-12.8-28.672-28.672V358.4c0-15.872 12.8-28.672 28.672-28.672h557.056L588.8 236.544c-11.264-11.264-11.264-29.184 0-40.448l41.472-41.472c11.264-11.264 29.184-11.264 40.448 0l245.248 245.248c10.752 10.752 10.752 27.648 0 38.4-5.12 5.12-11.776 7.68-18.944 7.68z" fill="" p-id="7732"></path></svg>