<?xml version="1.0" standalone="no"?><!DOCTYPE svg PUBLIC "-//W3C//DTD SVG 1.1//EN" "http://www.w3.org/Graphics/SVG/1.1/DTD/svg11.dtd"><svg t="1761616275803" class="icon" viewBox="0 0 1024 1024" version="1.1" xmlns="http://www.w3.org/2000/svg" p-id="2067" xmlns:xlink="http://www.w3.org/1999/xlink" width="200" height="200"><path d="M872.476444 67.228444c-12.828444-13.027556-30.165333-19.911111-50.090666-19.911111-18.304 0-38.769778 5.560889-62.549334 16.995556l-1.28 0.654222c-127.971556 69.674667-334.748444 181.233778-368.369777 196.778667H275.2c-76.444444 0-147.697778 70.656-147.697778 148.224v234.069333c0 72.732444 65.792 129.706667 147.697778 129.706667h116.408889c32.398222 12.302222 239.914667 120.135111 366.691555 187.107555l4.949334 2.033778c26.951111 8.277333 48.725333 13.809778 67.441778 13.809778 28.273778 0 42.865778-13.155556 50.773333-24.192 10.140444-14.051556 14.008889-33.166222 14.008889-60.145778V156.316444l0.881778-3.299555c0.270222-17.877333 1.749333-59.733333-23.879112-85.788445z m-688.071111 576.824889V409.969778c0-46.094222 45.809778-91.335111 90.808889-91.335111h108.302222v398.222222h-108.302222c-43.832889 0-90.808889-27.249778-90.808889-72.803556z m655.900445-491.946666l-0.042667 740.252444c0 21.560889-3.953778 26.723556-3.854222 26.752-0.170667 0.085333-1.664 0.696889-5.703111 0.696889-11.761778 0-30.705778-5.191111-48.184889-10.496-261.091556-137.898667-342.357333-176.967111-370.574222-188.060444V313.699556c27.505778-12.074667 107.576889-53.816889 373.148444-198.428445 19.2-9.144889 30.848-11.079111 37.276445-11.079111 6.670222 0 8.689778 2.048 9.557333 2.929778 8.945778 9.088 8.519111 36.110222 8.376889 44.984889z" fill="" p-id="2068"></path><path d="M777.088 218.510222c-19.584-12.302222-46.108444-1.664-65.550222 7.665778-66.090667 35.342222-174.364444 92.572444-187.477334 97.678222a14.236444 14.236444 0 0 0 3.256889 28.074667c4.437333 0 9.016889 0 196.650667-100.394667 27.662222-13.283556 35.968-10.183111 37.973333-8.96 1.92 1.208889 5.575111 6.115556 5.575111 25.500445v50.56a14.222222 14.222222 0 1 0 28.444445 0v-50.56c0-25.016889-5.632-41.230222-18.872889-49.564445zM781.738667 361.301333a14.222222 14.222222 0 0 0-14.222223 14.222223v14.222222a14.222222 14.222222 0 1 0 28.444445 0v-14.222222a14.222222 14.222222 0 0 0-14.222222-14.222223z" fill="" p-id="2069"></path></svg>